<svg xmlns="http://www.w3.org/2000/svg" viewBox="0 0 180 180">
<!-- SVG created with Arrow, by QuiverAI (https://quiver.ai) -->
  <style type="text/css">.cls-0 {fill:#DDEEFF;}
.cls-1 {fill:#2671F9;}
.cls-2 {fill:#131B68;}
.cls-3 {fill:#BDDEFF;}
.cls-4 {fill:#2146E3;}</style>
  <rect class="cls-0" width="180" height="180"/>
  <polygon class="cls-1" points="180 2 132.4 36.2 135.3 41.4 130.6 44.8 116.2 54.7 117.6 84.4 122.6 86.3 180 49.7 180 20.1"/>
  <polygon class="cls-0" points="117.4 66.1 180 18.4 180 21 118.2 67.2"/>
  <path class="cls-2" d="m169.4 51.2-0.4-0.2-21.3 16.3-0.2-1.3-0.6 0.1v1.9l-8.3 5.9-0.1-2.4 14.3-11.2-0.3-0.3-14 10.3-0.7-11.1-0.6-0.1 0.4 12-17.5 12.7-1.2-0.3-1.8-37 27.3-20.3-0.2-0.3-27.2 19.4-0.7-17.8c-0.7-5.2-8.4-5.7-9.5-0.5l-0.7 26.1-19.9 15.4-0.8-37.8c-0.6-4.9-8.5-6-9.3-0.7l-2.6 49.6-1.6 1.2v-1.1l0.1-17.8c0-0.6-0.6-1.2-1.2-0.8l-10.3 4.9-0.2-18.1c-0.6-3.9-6.7-4.2-7.2-0.2l-2.1 26.5-3.3 2.7 0.4-5.6c-0.1-0.7-0.8-1.1-1.4-0.6l-27.6 20.1-3.2-0.9-0.6 0.2-15.3 13.2v76.7h180v-27.3l-17.3-6-1.2-19.8-0.4-0.7-9.7-4.2-1-15.5 29.6-24.3v-7.6l-30.1 24.3-1.6-22.9 18.9-15.9-0.1-1-17.2 13.1-2.3-2.7 22.1-18.3h-0.3zm-19.7 69.9-8.6-3.5v-4l7.7-6.1 0.9 13.6zm0-19.9-8.9 6.6-0.2-6.8-0.4-0.9-0.8-17.3 7.9-6.1 1.3 24.9zm-10.9-17.3-0.2 0.2v-0.2h0.2zm-0.2 0.1 0.1 15.3-5.3-2.6-0.7 0.1-9.1 3.3-0.2-5 15.2-11.1z"/>
  <polygon class="cls-1" points="46.5 73 46.2 78.5 29.1 93.7 21.1 91.3"/>
  <polygon class="cls-1" points="15.9 91.5 27.7 94.7 21.2 100.5 19.2 124.9 12.6 128.7"/>
  <polygon class="cls-4" points="14.4 106.8 20.6 106.6 19.2 124.9 12.6 128.2"/>
  <polygon class="cls-1" points="0 123.8 9.4 117.1 8.2 131.3 0 135.7"/>
  <polygon class="cls-1" points="22.8 101.3 56.4 71.4 56.4 74.2 22.8 102"/>
  <path class="cls-1" d="m58.6 67.4-4 3.4 0.9-22.4c1-0.3 2.4 0.3 2.7 0.6l0.4 18.4z"/>
  <path class="cls-1" d="m55.6 46.6 0.2 1.1c0.8-0.1 2.2-0.2 2.7 0.7 0.5-1.4-1.5-2.2-2.9-1.8z"/>
  <path class="cls-1" d="m58.6 69.3-1.7 36.8 8.2-3.9 0.2-8.6 4.2-2.6 0.8-27.8c-3 1.3-10.4 4.2-11.7 6.1z"/>
  <polygon class="cls-4" points="57.4 96.7 65.3 97.4 65.1 102.2 56.9 106.1"/>
  <polygon class="cls-1" points="71.4 86 73.1 84.7 73 89 71.3 89.9"/>
  <polygon class="cls-1" points="71.7 83.8 73.2 82.6 73.5 79.6 71.5 80.9"/>
  <path class="cls-1" d="m78.3 86 1.3-55.6c1.6-0.4 3.8-0.1 4.3 1.2l0.9 50.6-6.5 3.8z"/>
  <path class="cls-1" d="m77.7 30.1c0.5-3.1 5.7-3.6 6 0-1.2-1-4.9-1-6 0z"/>
  <path class="cls-1" d="m86.3 70.2 19.5-15.6v1.9l-19.5 15.6v-1.9z"/>
  <polygon class="cls-1" points="86.4 77.8 86.5 81.3 99.8 73.7 100.3 73.7 105.2 76.2 105.4 63.1 86.5 77.8"/>
  <path class="cls-1" d="m110.7 25.3c2-0.6 4.1 0.5 4 2.2-0.8-0.8-3.2-0.9-4-0.6v-1.6z"/>
  <path class="cls-1" d="m110.7 27.7 0.2 51.4 6.4 3.3-2.5-54c-0.6-0.7-2.9-1.1-4.1-0.7z"/>
  <polygon class="cls-3" points="113.7 25.6 114.8 81.5 117.3 82.4 114.8 28.4"/>
  <polygon class="cls-1" points="117.5 46.5 131.4 36.3 132.4 37.6 117.1 48.1"/>
  <polygon class="cls-3" points="131.4 36.3 144.2 26.2 131.6 36.1"/>
  <polygon class="cls-1" points="121.5 84.6 137.7 72.6 137.8 75.1 122.9 85.6"/>
  <polygon class="cls-3" points="100.2 75.4 100.3 77.8 119.8 87.5 120.6 109.3 122.4 109.7 121.8 86.3"/>
  <polygon class="cls-1" points="100.4 77.8 119.8 87.5 120.6 109.3 100.5 101.2"/>
  <polygon class="cls-1" points="66.6 94.6 98.3 76.1 98.4 77.9 78.9 88.1"/>
  <polygon class="cls-1" points="81.5 94.5 81.5 95.6 103.1 104.2 103.1 106.1 103.1 109.1 81.5 101.6 81.5 97.3 101.5 105.1 101.5 108.8 81.5 101.6 81.5 103 159.8 127.4 161 146.2 157.1 144.9 156.1 128 155.7 127.5 103.3 106.6 103.1 104.2 81.5 95.6"/>
  <polygon class="cls-3" points="103.3 104.2 159.8 127.4 161 146.2 157.1 144.9 156.3 128.2 155.9 127.6 103.3 106.6"/>
  <polygon class="cls-1" points="81.4 105.7 152.6 131.4 153.3 144 137.6 139.1 117.7 142.4 117.2 122.9 116.7 122.4 81.4 110 81.4 105.7 8.1 138.6 10.7 139.4 81.1 110.4 112.4 122.6 112.9 143.4 112.2 143.6 111.9 144.3 112.2 144.9 137.4 140.4 137.4 142.2 112.1 145.6 112.4 163.4 98.6 160.2 98.5 145 98.3 144.7 91.5 143.3 91.2 143.6 91.2 158.6 80.6 156.1 80.8 123.8 102.2 130.1 102.6 129.6 81 121.8 81.1 118.2 107 126.5 107.4 126 81.2 116.4 81.2 111.4 112.4 122.6 112.9 143.1 112.2 143.4 111.9 144.3 112.2 144.9 137.4 140.4 180 154 180 155.6 137.4 140.4"/>
  <polygon class="cls-3" points="9.4 136.3 81.1 103 154.4 128.9 155.4 144.4 153.3 143.8 152.6 131.4 81.4 105.7 81.4 110"/>
  <polygon class="cls-1" points="137.4 140.4 180 154.2 180 157.2 137.4 142.2"/>
  <polygon class="cls-3" points="137.4 140.4 180 154.2 180 155.6 137.4 142.2"/>
  <polygon class="cls-1" points="137.8 147.6 180 159.6 180 161.4 137.8 148.9"/>
  <polygon class="cls-3" points="137.8 151 180 163 180 165.4 137.8 152.8"/>
  <polygon class="cls-1" points="137.9 152.6 180 165.4 180 178.4 138.6 169"/>
  <polygon class="cls-4" points="112.1 163.4 98.6 159.9 112 145.4"/>
  <polygon class="cls-1" points="50.9 137.1 50.9 128.9 79.3 116.1 79.3 118 55.6 130.9 55.6 131.8 79.3 122.1 79.3 124 55.6 131.6"/>
  <polygon class="cls-4" points="48.5 148.4 50.2 148.7 60.4 151.4 60.7 142.8 50.7 140.7"/>
  <polygon class="cls-1" points="49.1 140.6 50.7 140.7 50.2 148.7 48.5 148.4"/>
  <polygon class="cls-4" points="8.1 138.6 81.4 106.6 81.4 110 10.7 139.4"/>
  <polygon class="cls-1" points="37.1 96.7 55.3 84.9 55.3 87.1 37.1 97.9"/>
  <polygon class="cls-4" points="37 99.6 55.1 88.9 55.1 90.7 36.9 100.9"/>
  <polygon class="cls-1" points="47.2 93.7 55.1 88.9 55 90.7 46.6 95.4"/>
  <polygon class="cls-3" points="82.8 30.5 83.3 83.3 84.8 82.2 83.9 31.6"/>
  <polygon class="cls-3" points="57.6 48.7 57.8 67.6 58.6 67.1 58.2 49"/>
  <polygon class="cls-1" points="123.5 101.4 132.9 98.4 139.1 101.2 139.6 116.6 133.5 114.4 132.9 98.7 123.5 101.6"/>
  <polygon class="cls-4" points="123.5 101.4 132.9 98.4 132.9 99.6 123.5 102.4"/>
  <polygon class="cls-4" points="132.9 99.6 138.1 102 138.8 116.4 133.5 114.4"/>
  <polygon class="cls-1" points="150.1 30.4 135.3 41.4 132.4 36.2 180 2 180 18.4 118.1 65.9 117.6 55.7 151.5 30.5"/>
  <polygon class="cls-1" points="149.9 98.9 180 74.6 180 82.2 159.4 97.9 158.3 97.6 168.7 87.6 168.4 87.4 149.9 101.2"/>
  <polygon class="cls-2" points="158.5 97.9 172.1 88.1 172.2 88.4 159.4 97.9"/>
  <path class="cls-2" d="m103.1 67.8 0.2 0.4 2.1-1.6-0.1-0.6-2.2 1.8z"/>
  <path class="cls-2" d="m107.7 113.6c-0.7 0-0.9 1.1-0.1 1.4l29.1 10.4c0.5 0.2 0.4 0.2 0.2 0.2 0.3 0 0.5 0 0.3-0.7l-29.5-11.3z"/>
  <polygon class="cls-2" points="81 116.1 107.4 125.8 107.2 126.5 81.1 118.4"/>
  <polygon class="cls-2" points="50.9 127.9 79.3 116.1 79.3 118.2 51.1 128.9 50.7 140.7 48.9 140.7"/>
  <polygon class="cls-2" points="113.9 123.1 115.6 123.8 116.1 142.6 114.4 142.9"/>
</svg>